<mxfile host="65bd71144e">
    <diagram id="g5wbfVR3hxNmUaX2ej2h" name="Page-1">
        <mxGraphModel dx="2284" dy="1633" grid="1" gridSize="10" guides="1" tooltips="1" connect="1" arrows="1" fold="1" page="1" pageScale="1" pageWidth="850" pageHeight="1100" math="0" shadow="0">
            <root>
                <mxCell id="0"/>
                <mxCell id="1" parent="0"/>
                <mxCell id="I5PKDxI4gq_-QwTu2oaX-67" value="" style="rounded=0;whiteSpace=wrap;html=1;" parent="1" vertex="1">
                    <mxGeometry x="100" y="-360" width="240" height="335" as="geometry"/>
                </mxCell>
                <mxCell id="I5PKDxI4gq_-QwTu2oaX-1" value="&lt;div&gt;Website&lt;br&gt;&lt;/div&gt;" style="rounded=1;whiteSpace=wrap;html=1;" parent="1" vertex="1">
                    <mxGeometry x="340" y="40" width="120" height="60" as="geometry"/>
                </mxCell>
                <mxCell id="I5PKDxI4gq_-QwTu2oaX-2" value="Order Dispatcher&lt;br&gt;&lt;div&gt;Python App&lt;/div&gt;" style="rounded=1;whiteSpace=wrap;html=1;" parent="1" vertex="1">
                    <mxGeometry x="340" y="200" width="120" height="60" as="geometry"/>
                </mxCell>
                <mxCell id="I5PKDxI4gq_-QwTu2oaX-4" value="&lt;div&gt;Website URL&lt;/div&gt;&lt;div&gt;/order_dispatcher&lt;br&gt;&lt;/div&gt;" style="rounded=1;whiteSpace=wrap;html=1;" parent="1" vertex="1">
                    <mxGeometry x="690" y="330" width="140" height="80" as="geometry"/>
                </mxCell>
                <mxCell id="I5PKDxI4gq_-QwTu2oaX-6" value="Fetch" style="text;html=1;strokeColor=none;fillColor=none;align=center;verticalAlign=middle;whiteSpace=wrap;rounded=0;" parent="1" vertex="1">
                    <mxGeometry x="-31" y="45" width="60" height="30" as="geometry"/>
                </mxCell>
                <mxCell id="I5PKDxI4gq_-QwTu2oaX-8" value="Display" style="text;html=1;strokeColor=none;fillColor=none;align=center;verticalAlign=middle;whiteSpace=wrap;rounded=0;" parent="1" vertex="1">
                    <mxGeometry x="760" y="290" width="60" height="30" as="geometry"/>
                </mxCell>
                <mxCell id="I5PKDxI4gq_-QwTu2oaX-12" value="CamÃ©ra" style="rounded=1;whiteSpace=wrap;html=1;" parent="1" vertex="1">
                    <mxGeometry x="340" y="320" width="120" height="70" as="geometry"/>
                </mxCell>
                <mxCell id="I5PKDxI4gq_-QwTu2oaX-13" value="" style="endArrow=classic;html=1;rounded=0;exitX=0.5;exitY=0;exitDx=0;exitDy=0;entryX=0.5;entryY=1;entryDx=0;entryDy=0;" parent="1" source="I5PKDxI4gq_-QwTu2oaX-12" target="I5PKDxI4gq_-QwTu2oaX-2" edge="1">
                    <mxGeometry width="50" height="50" relative="1" as="geometry">
                        <mxPoint x="400" y="300" as="sourcePoint"/>
                        <mxPoint x="450" y="250" as="targetPoint"/>
                        <Array as="points">
                            <mxPoint x="400" y="310"/>
                        </Array>
                    </mxGeometry>
                </mxCell>
                <mxCell id="I5PKDxI4gq_-QwTu2oaX-15" value="COMPANY_WEBSITE.COM" style="rounded=1;whiteSpace=wrap;html=1;" parent="1" vertex="1">
                    <mxGeometry x="-370" y="40" width="240" height="60" as="geometry"/>
                </mxCell>
                <mxCell id="I5PKDxI4gq_-QwTu2oaX-16" value="" style="endArrow=classic;html=1;rounded=0;entryX=1;entryY=0.5;entryDx=0;entryDy=0;" parent="1" target="I5PKDxI4gq_-QwTu2oaX-15" edge="1">
                    <mxGeometry width="50" height="50" relative="1" as="geometry">
                        <mxPoint x="30" y="70" as="sourcePoint"/>
                        <mxPoint x="570" y="250" as="targetPoint"/>
                    </mxGeometry>
                </mxCell>
                <mxCell id="I5PKDxI4gq_-QwTu2oaX-17" value="Sqlite3/others" style="strokeWidth=2;html=1;shape=mxgraph.flowchart.database;whiteSpace=wrap;" parent="1" vertex="1">
                    <mxGeometry x="610" y="-25" width="140" height="185" as="geometry"/>
                </mxCell>
                <mxCell id="I5PKDxI4gq_-QwTu2oaX-18" value="" style="endArrow=classic;html=1;rounded=0;exitX=1;exitY=0.5;exitDx=0;exitDy=0;entryX=0;entryY=0.5;entryDx=0;entryDy=0;entryPerimeter=0;" parent="1" target="I5PKDxI4gq_-QwTu2oaX-17" edge="1">
                    <mxGeometry width="50" height="50" relative="1" as="geometry">
                        <mxPoint x="460" y="69" as="sourcePoint"/>
                        <mxPoint x="600" y="69" as="targetPoint"/>
                    </mxGeometry>
                </mxCell>
                <mxCell id="I5PKDxI4gq_-QwTu2oaX-19" value="Fetch Current 4 Orders" style="text;html=1;strokeColor=none;fillColor=none;align=center;verticalAlign=middle;whiteSpace=wrap;rounded=0;" parent="1" vertex="1">
                    <mxGeometry x="425" y="120" width="175" height="30" as="geometry"/>
                </mxCell>
                <mxCell id="I5PKDxI4gq_-QwTu2oaX-20" value="" style="endArrow=classic;html=1;rounded=0;exitX=0.75;exitY=0;exitDx=0;exitDy=0;entryX=0.75;entryY=1;entryDx=0;entryDy=0;" parent="1" source="I5PKDxI4gq_-QwTu2oaX-2" target="I5PKDxI4gq_-QwTu2oaX-1" edge="1">
                    <mxGeometry width="50" height="50" relative="1" as="geometry">
                        <mxPoint x="520" y="300" as="sourcePoint"/>
                        <mxPoint x="570" y="250" as="targetPoint"/>
                    </mxGeometry>
                </mxCell>
                <mxCell id="I5PKDxI4gq_-QwTu2oaX-21" value="TriggerEvent" style="text;html=1;strokeColor=none;fillColor=none;align=center;verticalAlign=middle;whiteSpace=wrap;rounded=0;" parent="1" vertex="1">
                    <mxGeometry x="400" y="280" width="80" height="30" as="geometry"/>
                </mxCell>
                <mxCell id="I5PKDxI4gq_-QwTu2oaX-22" value="" style="endArrow=classic;html=1;rounded=0;exitX=1.017;exitY=0.367;exitDx=0;exitDy=0;exitPerimeter=0;entryX=1;entryY=0.75;entryDx=0;entryDy=0;" parent="1" source="I5PKDxI4gq_-QwTu2oaX-2" target="I5PKDxI4gq_-QwTu2oaX-2" edge="1">
                    <mxGeometry width="50" height="50" relative="1" as="geometry">
                        <mxPoint x="520" y="300" as="sourcePoint"/>
                        <mxPoint x="570" y="250" as="targetPoint"/>
                        <Array as="points">
                            <mxPoint x="530" y="222"/>
                            <mxPoint x="530" y="245"/>
                        </Array>
                    </mxGeometry>
                </mxCell>
                <mxCell id="I5PKDxI4gq_-QwTu2oaX-23" value="UpdateLocalOrder" style="text;html=1;strokeColor=none;fillColor=none;align=center;verticalAlign=middle;whiteSpace=wrap;rounded=0;" parent="1" vertex="1">
                    <mxGeometry x="530" y="215" width="130" height="30" as="geometry"/>
                </mxCell>
                <mxCell id="I5PKDxI4gq_-QwTu2oaX-24" value="" style="endArrow=classic;html=1;rounded=0;exitX=0.25;exitY=0;exitDx=0;exitDy=0;entryX=0.25;entryY=1;entryDx=0;entryDy=0;" parent="1" source="I5PKDxI4gq_-QwTu2oaX-2" target="I5PKDxI4gq_-QwTu2oaX-1" edge="1">
                    <mxGeometry width="50" height="50" relative="1" as="geometry">
                        <mxPoint x="520" y="300" as="sourcePoint"/>
                        <mxPoint x="570" y="250" as="targetPoint"/>
                    </mxGeometry>
                </mxCell>
                <mxCell id="I5PKDxI4gq_-QwTu2oaX-25" value="UpdateRemoteOrder" style="text;html=1;strokeColor=none;fillColor=none;align=center;verticalAlign=middle;whiteSpace=wrap;rounded=0;" parent="1" vertex="1">
                    <mxGeometry x="240" y="120" width="130" height="30" as="geometry"/>
                </mxCell>
                <mxCell id="I5PKDxI4gq_-QwTu2oaX-27" value="API" style="rounded=0;whiteSpace=wrap;html=1;" parent="1" vertex="1">
                    <mxGeometry x="420" y="80" width="30" height="20" as="geometry"/>
                </mxCell>
                <mxCell id="I5PKDxI4gq_-QwTu2oaX-28" value="API" style="rounded=0;whiteSpace=wrap;html=1;" parent="1" vertex="1">
                    <mxGeometry x="350" y="80" width="30" height="20" as="geometry"/>
                </mxCell>
                <mxCell id="I5PKDxI4gq_-QwTu2oaX-32" value="" style="endArrow=none;dashed=1;html=1;rounded=0;exitX=0.75;exitY=0;exitDx=0;exitDy=0;entryX=0.5;entryY=0;entryDx=0;entryDy=0;" parent="1" source="I5PKDxI4gq_-QwTu2oaX-1" target="I5PKDxI4gq_-QwTu2oaX-4" edge="1">
                    <mxGeometry width="50" height="50" relative="1" as="geometry">
                        <mxPoint x="440" y="290" as="sourcePoint"/>
                        <mxPoint x="490" y="240" as="targetPoint"/>
                        <Array as="points">
                            <mxPoint x="430" y="-120"/>
                            <mxPoint x="760" y="-120"/>
                        </Array>
                    </mxGeometry>
                </mxCell>
                <mxCell id="I5PKDxI4gq_-QwTu2oaX-35" value="Users" style="rounded=0;whiteSpace=wrap;html=1;" parent="1" vertex="1">
                    <mxGeometry x="620" y="90" width="40" height="20" as="geometry"/>
                </mxCell>
                <mxCell id="I5PKDxI4gq_-QwTu2oaX-36" value="Orders" style="rounded=0;whiteSpace=wrap;html=1;" parent="1" vertex="1">
                    <mxGeometry x="665" y="90" width="40" height="20" as="geometry"/>
                </mxCell>
                <mxCell id="I5PKDxI4gq_-QwTu2oaX-37" value="Dishes" style="rounded=0;whiteSpace=wrap;html=1;" parent="1" vertex="1">
                    <mxGeometry x="620" y="120" width="40" height="20" as="geometry"/>
                </mxCell>
                <mxCell id="I5PKDxI4gq_-QwTu2oaX-39" value="" style="rounded=0;whiteSpace=wrap;html=1;" parent="1" vertex="1">
                    <mxGeometry x="770" y="-80" width="280" height="280" as="geometry"/>
                </mxCell>
                <mxCell id="I5PKDxI4gq_-QwTu2oaX-40" value="Order N 152" style="text;html=1;strokeColor=none;fillColor=none;align=center;verticalAlign=middle;whiteSpace=wrap;rounded=0;" parent="1" vertex="1">
                    <mxGeometry x="860" y="-80" width="110" height="40" as="geometry"/>
                </mxCell>
                <mxCell id="I5PKDxI4gq_-QwTu2oaX-41" value="&lt;div&gt;Quantity = 2&lt;br&gt;Quantity_left = 1&lt;br&gt;&lt;/div&gt;&lt;div&gt;name=Giant &lt;br&gt;&lt;/div&gt;&lt;div&gt;RemoteId = HKF452&lt;/div&gt;&lt;div&gt;ID = 1&lt;/div&gt;&lt;div&gt;completed=False, &lt;br&gt;&lt;/div&gt;&lt;div&gt;order = Foreignkey_Orders&lt;/div&gt;" style="text;html=1;strokeColor=none;fillColor=none;align=left;verticalAlign=middle;whiteSpace=wrap;rounded=0;" parent="1" vertex="1">
                    <mxGeometry x="770" y="-45" width="282" height="105" as="geometry"/>
                </mxCell>
                <mxCell id="I5PKDxI4gq_-QwTu2oaX-42" value="&lt;div&gt;Auto Reload&lt;/div&gt;" style="rounded=0;whiteSpace=wrap;html=1;" parent="1" vertex="1">
                    <mxGeometry x="705" y="390" width="110" height="20" as="geometry"/>
                </mxCell>
                <mxCell id="I5PKDxI4gq_-QwTu2oaX-45" value="" style="shape=image;html=1;verticalAlign=top;verticalLabelPosition=bottom;labelBackgroundColor=#ffffff;imageAspect=0;aspect=fixed;image=https://cdn1.iconfinder.com/data/icons/nuvola2/48x48/actions/ledorange.png" parent="1" vertex="1">
                    <mxGeometry x="-70" y="280" width="48" height="48" as="geometry"/>
                </mxCell>
                <mxCell id="I5PKDxI4gq_-QwTu2oaX-46" value="" style="shape=image;html=1;verticalAlign=top;verticalLabelPosition=bottom;labelBackgroundColor=#ffffff;imageAspect=0;aspect=fixed;image=https://cdn1.iconfinder.com/data/icons/nuvola2/48x48/actions/ledlightblue.png" parent="1" vertex="1">
                    <mxGeometry x="10" y="280" width="48" height="48" as="geometry"/>
                </mxCell>
                <mxCell id="I5PKDxI4gq_-QwTu2oaX-47" value="" style="shape=image;html=1;verticalAlign=top;verticalLabelPosition=bottom;labelBackgroundColor=#ffffff;imageAspect=0;aspect=fixed;image=https://cdn1.iconfinder.com/data/icons/nuvola2/48x48/actions/ledlightblue.png" parent="1" vertex="1">
                    <mxGeometry x="150" y="280" width="48" height="48" as="geometry"/>
                </mxCell>
                <mxCell id="I5PKDxI4gq_-QwTu2oaX-48" value="" style="shape=image;html=1;verticalAlign=top;verticalLabelPosition=bottom;labelBackgroundColor=#ffffff;imageAspect=0;aspect=fixed;image=https://cdn1.iconfinder.com/data/icons/nuvola2/48x48/actions/ledlightblue.png" parent="1" vertex="1">
                    <mxGeometry x="76" y="280" width="48" height="48" as="geometry"/>
                </mxCell>
                <mxCell id="I5PKDxI4gq_-QwTu2oaX-49" value="" style="endArrow=classic;html=1;rounded=0;exitX=0;exitY=0.75;exitDx=0;exitDy=0;entryX=0.5;entryY=0;entryDx=0;entryDy=0;" parent="1" source="I5PKDxI4gq_-QwTu2oaX-2" target="I5PKDxI4gq_-QwTu2oaX-45" edge="1">
                    <mxGeometry width="50" height="50" relative="1" as="geometry">
                        <mxPoint x="440" y="260" as="sourcePoint"/>
                        <mxPoint x="490" y="210" as="targetPoint"/>
                        <Array as="points">
                            <mxPoint x="-46" y="245"/>
                            <mxPoint x="-46" y="260"/>
                        </Array>
                    </mxGeometry>
                </mxCell>
                <mxCell id="I5PKDxI4gq_-QwTu2oaX-50" value="" style="endArrow=classic;html=1;rounded=0;exitX=0.118;exitY=1.018;exitDx=0;exitDy=0;exitPerimeter=0;" parent="1" source="I5PKDxI4gq_-QwTu2oaX-54" edge="1">
                    <mxGeometry width="50" height="50" relative="1" as="geometry">
                        <mxPoint x="34" y="260" as="sourcePoint"/>
                        <mxPoint x="32" y="280" as="targetPoint"/>
                    </mxGeometry>
                </mxCell>
                <mxCell id="I5PKDxI4gq_-QwTu2oaX-52" value="" style="endArrow=classic;html=1;rounded=0;entryX=0.5;entryY=0;entryDx=0;entryDy=0;exitX=0.477;exitY=0.989;exitDx=0;exitDy=0;exitPerimeter=0;" parent="1" source="I5PKDxI4gq_-QwTu2oaX-54" edge="1">
                    <mxGeometry width="50" height="50" relative="1" as="geometry">
                        <mxPoint x="99.86000000000023" y="260" as="sourcePoint"/>
                        <mxPoint x="99.85999999999977" y="280" as="targetPoint"/>
                    </mxGeometry>
                </mxCell>
                <mxCell id="I5PKDxI4gq_-QwTu2oaX-53" value="" style="endArrow=classic;html=1;rounded=0;entryX=0.5;entryY=0;entryDx=0;entryDy=0;exitX=0.865;exitY=1.033;exitDx=0;exitDy=0;exitPerimeter=0;" parent="1" source="I5PKDxI4gq_-QwTu2oaX-54" edge="1">
                    <mxGeometry width="50" height="50" relative="1" as="geometry">
                        <mxPoint x="173.86000000000024" y="260" as="sourcePoint"/>
                        <mxPoint x="173.8599999999998" y="280" as="targetPoint"/>
                    </mxGeometry>
                </mxCell>
                <mxCell id="I5PKDxI4gq_-QwTu2oaX-54" value="Turn On" style="text;html=1;strokeColor=none;fillColor=none;align=center;verticalAlign=middle;whiteSpace=wrap;rounded=0;" parent="1" vertex="1">
                    <mxGeometry x="10" y="215" width="190" height="30" as="geometry"/>
                </mxCell>
                <mxCell id="I5PKDxI4gq_-QwTu2oaX-56" value="" style="rounded=1;whiteSpace=wrap;html=1;" parent="1" vertex="1">
                    <mxGeometry x="132.5" y="-297" width="70" height="32" as="geometry"/>
                </mxCell>
                <mxCell id="I5PKDxI4gq_-QwTu2oaX-57" value="Actors" style="text;html=1;strokeColor=none;fillColor=none;align=center;verticalAlign=middle;whiteSpace=wrap;rounded=0;" parent="1" vertex="1">
                    <mxGeometry x="212.5" y="-295" width="60" height="30" as="geometry"/>
                </mxCell>
                <mxCell id="I5PKDxI4gq_-QwTu2oaX-58" value="" style="endArrow=classic;html=1;rounded=0;" parent="1" edge="1">
                    <mxGeometry width="50" height="50" relative="1" as="geometry">
                        <mxPoint x="152.5" y="-215" as="sourcePoint"/>
                        <mxPoint x="182.5" y="-245" as="targetPoint"/>
                    </mxGeometry>
                </mxCell>
                <mxCell id="I5PKDxI4gq_-QwTu2oaX-59" value="Interactions" style="text;html=1;strokeColor=none;fillColor=none;align=center;verticalAlign=middle;whiteSpace=wrap;rounded=0;" parent="1" vertex="1">
                    <mxGeometry x="212.5" y="-245" width="70" height="30" as="geometry"/>
                </mxCell>
                <mxCell id="I5PKDxI4gq_-QwTu2oaX-60" value="" style="shape=image;html=1;verticalAlign=top;verticalLabelPosition=bottom;labelBackgroundColor=#ffffff;imageAspect=0;aspect=fixed;image=https://cdn1.iconfinder.com/data/icons/nuvola2/48x48/actions/ledlightblue.png" parent="1" vertex="1">
                    <mxGeometry x="143.5" y="-195" width="48" height="48" as="geometry"/>
                </mxCell>
                <mxCell id="I5PKDxI4gq_-QwTu2oaX-61" value="LED" style="text;html=1;strokeColor=none;fillColor=none;align=center;verticalAlign=middle;whiteSpace=wrap;rounded=0;" parent="1" vertex="1">
                    <mxGeometry x="212.5" y="-195" width="70" height="30" as="geometry"/>
                </mxCell>
                <mxCell id="I5PKDxI4gq_-QwTu2oaX-62" value="" style="rounded=0;whiteSpace=wrap;html=1;" parent="1" vertex="1">
                    <mxGeometry x="137.5" y="-125" width="60" height="40" as="geometry"/>
                </mxCell>
                <mxCell id="I5PKDxI4gq_-QwTu2oaX-63" value="Model" style="text;html=1;align=center;verticalAlign=middle;resizable=0;points=[];autosize=1;strokeColor=none;fillColor=none;" parent="1" vertex="1">
                    <mxGeometry x="217.5" y="-115" width="50" height="20" as="geometry"/>
                </mxCell>
                <mxCell id="I5PKDxI4gq_-QwTu2oaX-65" value="" style="endArrow=none;dashed=1;html=1;rounded=0;" parent="1" edge="1">
                    <mxGeometry width="50" height="50" relative="1" as="geometry">
                        <mxPoint x="152" y="-35" as="sourcePoint"/>
                        <mxPoint x="183" y="-65" as="targetPoint"/>
                    </mxGeometry>
                </mxCell>
                <mxCell id="I5PKDxI4gq_-QwTu2oaX-66" value="SubDomain" style="text;html=1;align=center;verticalAlign=middle;resizable=0;points=[];autosize=1;strokeColor=none;fillColor=none;" parent="1" vertex="1">
                    <mxGeometry x="207.5" y="-65" width="80" height="20" as="geometry"/>
                </mxCell>
                <mxCell id="I5PKDxI4gq_-QwTu2oaX-68" value="Legend" style="text;html=1;strokeColor=none;fillColor=none;align=center;verticalAlign=middle;whiteSpace=wrap;rounded=0;" parent="1" vertex="1">
                    <mxGeometry x="157.5" y="-355" width="125" height="30" as="geometry"/>
                </mxCell>
                <mxCell id="I5PKDxI4gq_-QwTu2oaX-69" value="" style="endArrow=none;html=1;rounded=0;exitX=0.003;exitY=0.101;exitDx=0;exitDy=0;exitPerimeter=0;entryX=1;entryY=0.101;entryDx=0;entryDy=0;entryPerimeter=0;" parent="1" source="I5PKDxI4gq_-QwTu2oaX-67" target="I5PKDxI4gq_-QwTu2oaX-67" edge="1">
                    <mxGeometry width="50" height="50" relative="1" as="geometry">
                        <mxPoint x="502.5" y="-265" as="sourcePoint"/>
                        <mxPoint x="552.5" y="-315" as="targetPoint"/>
                    </mxGeometry>
                </mxCell>
                <mxCell id="I5PKDxI4gq_-QwTu2oaX-70" value="API" style="rounded=0;whiteSpace=wrap;html=1;" parent="1" vertex="1">
                    <mxGeometry x="-61" y="50" width="30" height="20" as="geometry"/>
                </mxCell>
                <mxCell id="2" value="&lt;div&gt;Cron Script&lt;br&gt;&lt;/div&gt;" style="rounded=1;whiteSpace=wrap;html=1;" parent="1" vertex="1">
                    <mxGeometry x="30" y="40" width="120" height="60" as="geometry"/>
                </mxCell>
                <mxCell id="3" value="" style="endArrow=classic;html=1;exitX=1;exitY=0.5;exitDx=0;exitDy=0;entryX=0;entryY=0.5;entryDx=0;entryDy=0;" parent="1" source="2" target="I5PKDxI4gq_-QwTu2oaX-1" edge="1">
                    <mxGeometry width="50" height="50" relative="1" as="geometry">
                        <mxPoint x="220" y="170" as="sourcePoint"/>
                        <mxPoint x="270" y="120" as="targetPoint"/>
                    </mxGeometry>
                </mxCell>
                <mxCell id="4" value="Post" style="text;html=1;strokeColor=none;fillColor=none;align=center;verticalAlign=middle;whiteSpace=wrap;rounded=0;" parent="1" vertex="1">
                    <mxGeometry x="190" y="40" width="60" height="30" as="geometry"/>
                </mxCell>
                <mxCell id="5" value="API" style="rounded=0;whiteSpace=wrap;html=1;" parent="1" vertex="1">
                    <mxGeometry x="252.5" y="45" width="30" height="20" as="geometry"/>
                </mxCell>
            </root>
        </mxGraphModel>
    </diagram>
</mxfile>